# 3ds Max Wavefront OBJ Exporter v0.97b - (c)2007 guruware
# File Created: 24.01.2022 12:13:59

mtllib WindowText.mtl

#
# object WindowText
#

v  -4.9054 3.1336 0.9757
v  -4.9054 0.3333 0.9757
v  -5.0015 0.3333 -0.0000
v  -5.0015 3.1336 -0.0000
v  -4.6207 3.1336 1.9140
v  -4.6207 0.3333 1.9140
v  -4.1586 3.1336 2.7787
v  -4.1586 0.3333 2.7787
v  -3.5366 3.1336 3.5366
v  -3.5366 0.3333 3.5366
v  -2.7787 3.1336 4.1586
v  -2.7787 0.3333 4.1586
v  -1.9140 3.1336 4.6207
v  -1.9140 0.3333 4.6207
v  -0.9757 3.1336 4.9054
v  -0.9757 0.3333 4.9054
v  0.0000 3.1336 5.0015
v  0.0000 0.3333 5.0015
v  0.9757 3.1336 4.9054
v  0.9757 0.3333 4.9054
v  1.9140 3.1336 4.6207
v  1.9140 0.3333 4.6207
v  2.7787 3.1336 4.1586
v  2.7787 0.3333 4.1586
v  3.5366 3.1336 3.5366
v  3.5366 0.3333 3.5366
v  4.1586 3.1336 2.7787
v  4.1586 0.3333 2.7787
v  4.6207 3.1336 1.9140
v  4.6207 0.3333 1.9140
v  4.9054 3.1336 0.9757
v  4.9054 0.3333 0.9757
v  5.0015 3.1336 -0.0000
v  5.0015 0.3333 -0.0000
v  4.9054 3.1336 -0.9757
v  4.9054 0.3333 -0.9757
v  4.6207 3.1336 -1.9140
v  4.6207 0.3333 -1.9140
v  4.1586 3.1336 -2.7787
v  4.1586 0.3333 -2.7787
v  3.5366 3.1336 -3.5366
v  3.5366 0.3333 -3.5366
v  2.7787 3.1336 -4.1586
v  2.7787 0.3333 -4.1586
v  1.9140 3.1336 -4.6207
v  1.9140 0.3333 -4.6207
v  0.9757 3.1336 -4.9054
v  0.9757 0.3333 -4.9054
v  0.0000 3.1336 -5.0015
v  0.0000 0.3333 -5.0015
v  -0.9757 3.1336 -4.9054
v  -0.9757 0.3333 -4.9054
v  -1.9140 3.1336 -4.6207
v  -1.9140 0.3333 -4.6207
v  -2.7787 3.1336 -4.1586
v  -2.7787 0.3333 -4.1586
v  -3.5366 3.1336 -3.5366
v  -3.5366 0.3333 -3.5366
v  -4.1586 3.1336 -2.7787
v  -4.1586 0.3333 -2.7787
v  -4.6207 3.1336 -1.9140
v  -4.6207 0.3333 -1.9140
v  -4.9054 3.1336 -0.9757
v  -4.9054 0.3333 -0.9757
# 64 vertices

vn 0.9808 -0.0000 -0.1951
vn 1.0000 -0.0000 0.0000
vn 0.9239 -0.0000 -0.3827
vn 0.8315 -0.0000 -0.5556
vn 0.7071 0.0000 -0.7071
vn 0.5556 0.0000 -0.8315
vn 0.3827 0.0000 -0.9239
vn 0.1951 0.0000 -0.9808
vn 0.0000 -0.0000 -1.0000
vn -0.1951 0.0000 -0.9808
vn -0.3827 0.0000 -0.9239
vn -0.5556 0.0000 -0.8315
vn -0.7071 0.0000 -0.7071
vn -0.8315 0.0000 -0.5556
vn -0.9239 0.0000 -0.3827
vn -0.9808 0.0000 -0.1951
vn -1.0000 0.0000 0.0000
vn -0.9808 0.0000 0.1951
vn -0.9239 0.0000 0.3827
vn -0.8315 0.0000 0.5556
vn -0.7071 0.0000 0.7071
vn -0.5556 0.0000 0.8315
vn -0.3827 0.0000 0.9239
vn -0.1951 0.0000 0.9808
vn 0.0000 0.0000 1.0000
vn 0.1951 -0.0000 0.9808
vn 0.3827 -0.0000 0.9239
vn 0.5556 -0.0000 0.8315
vn 0.7071 -0.0000 0.7071
vn 0.8315 -0.0000 0.5556
vn 0.9239 -0.0000 0.3827
vn 0.9808 -0.0000 0.1951
# 32 vertex normals

vt 6.6029 0.9943 0.0000
vt 6.6029 0.0020 0.0000
vt 6.9503 0.0020 0.0000
vt 6.9503 0.9943 0.0000
vt 6.2555 0.9943 0.0000
vt 6.2555 0.0020 0.0000
vt 5.9081 0.9943 0.0000
vt 5.9081 0.0020 0.0000
vt 5.5607 0.9943 0.0000
vt 5.5607 0.0020 0.0000
vt 5.2133 0.9943 0.0000
vt 5.2133 0.0020 0.0000
vt 4.8658 0.9943 0.0000
vt 4.8658 0.0020 0.0000
vt 4.5184 0.9943 0.0000
vt 4.5184 0.0020 0.0000
vt 4.1710 0.9943 0.0000
vt 4.1710 0.0020 0.0000
vt 3.8236 0.9943 0.0000
vt 3.8236 0.0020 0.0000
vt 3.4762 0.9943 0.0000
vt 3.4762 0.0020 0.0000
vt 3.1288 0.9943 0.0000
vt 3.1288 0.0020 0.0000
vt 2.7813 0.9943 0.0000
vt 2.7813 0.0020 0.0000
vt 2.4339 0.9943 0.0000
vt 2.4339 0.0020 0.0000
vt 2.0865 0.9943 0.0000
vt 2.0865 0.0020 0.0000
vt 1.7391 0.9943 0.0000
vt 1.7391 0.0020 0.0000
vt 1.3917 0.9943 0.0000
vt 1.3917 0.0020 0.0000
vt 1.0443 0.9943 0.0000
vt 1.0443 0.0020 0.0000
vt 0.6968 0.9943 0.0000
vt 0.6968 0.0020 0.0000
vt 0.3494 0.9943 0.0000
vt 0.3494 0.0020 0.0000
vt 0.0020 0.9943 0.0000
vt 0.0020 0.0020 0.0000
vt 10.7719 0.9943 0.0000
vt 10.7719 0.0020 0.0000
vt 11.1194 0.0020 0.0000
vt 11.1194 0.9943 0.0000
vt 10.4245 0.9943 0.0000
vt 10.4245 0.0020 0.0000
vt 10.0771 0.9943 0.0000
vt 10.0771 0.0020 0.0000
vt 9.7297 0.9943 0.0000
vt 9.7297 0.0020 0.0000
vt 9.3823 0.9943 0.0000
vt 9.3823 0.0020 0.0000
vt 9.0349 0.9943 0.0000
vt 9.0349 0.0020 0.0000
vt 8.6874 0.9943 0.0000
vt 8.6874 0.0020 0.0000
vt 8.3400 0.9943 0.0000
vt 8.3400 0.0020 0.0000
vt 7.9926 0.9943 0.0000
vt 7.9926 0.0020 0.0000
vt 7.6452 0.9943 0.0000
vt 7.6452 0.0020 0.0000
vt 7.2978 0.9943 0.0000
vt 7.2978 0.0020 0.0000
# 66 texture coords

o WindowText
g WindowText
usemtl WindowText_IconText
s 1
f 1/1/1 2/2/1 3/3/2 4/4/2 
f 5/5/3 6/6/3 2/2/1 1/1/1 
f 7/7/4 8/8/4 6/6/3 5/5/3 
f 9/9/5 10/10/5 8/8/4 7/7/4 
f 11/11/6 12/12/6 10/10/5 9/9/5 
f 13/13/7 14/14/7 12/12/6 11/11/6 
f 15/15/8 16/16/8 14/14/7 13/13/7 
f 17/17/9 18/18/9 16/16/8 15/15/8 
f 19/19/10 20/20/10 18/18/9 17/17/9 
f 21/21/11 22/22/11 20/20/10 19/19/10 
f 23/23/12 24/24/12 22/22/11 21/21/11 
f 25/25/13 26/26/13 24/24/12 23/23/12 
f 27/27/14 28/28/14 26/26/13 25/25/13 
f 29/29/15 30/30/15 28/28/14 27/27/14 
f 31/31/16 32/32/16 30/30/15 29/29/15 
f 33/33/17 34/34/17 32/32/16 31/31/16 
f 35/35/18 36/36/18 34/34/17 33/33/17 
f 37/37/19 38/38/19 36/36/18 35/35/18 
f 39/39/20 40/40/20 38/38/19 37/37/19 
f 41/41/21 42/42/21 40/40/20 39/39/20 
f 43/43/22 44/44/22 42/45/21 41/46/21 
f 45/47/23 46/48/23 44/44/22 43/43/22 
f 47/49/24 48/50/24 46/48/23 45/47/23 
f 49/51/25 50/52/25 48/50/24 47/49/24 
f 51/53/26 52/54/26 50/52/25 49/51/25 
f 53/55/27 54/56/27 52/54/26 51/53/26 
f 55/57/28 56/58/28 54/56/27 53/55/27 
f 57/59/29 58/60/29 56/58/28 55/57/28 
f 59/61/30 60/62/30 58/60/29 57/59/29 
f 61/63/31 62/64/31 60/62/30 59/61/30 
f 63/65/32 64/66/32 62/64/31 61/63/31 
f 4/4/2 3/3/2 64/66/32 63/65/32 
# 32 polygons

